<mxfile host="Electron" agent="Mozilla/5.0 (Windows NT 10.0; Win64; x64) AppleWebKit/537.36 (KHTML, like Gecko) draw.io/24.7.17 Chrome/128.0.6613.36 Electron/32.0.1 Safari/537.36" version="24.7.17">
  <diagram name="第 1 页" id="Gg-AVodTyUfd8uiYMPnj">
    <mxGraphModel dx="1843" dy="2487" grid="1" gridSize="10" guides="1" tooltips="1" connect="1" arrows="1" fold="1" page="1" pageScale="1" pageWidth="900" pageHeight="1600" math="0" shadow="0">
      <root>
        <mxCell id="0" />
        <mxCell id="1" parent="0" />
        <mxCell id="ctGU4KIR7K0SBVt-7xmt-13" style="edgeStyle=orthogonalEdgeStyle;rounded=0;orthogonalLoop=1;jettySize=auto;html=1;entryX=0.5;entryY=0;entryDx=0;entryDy=0;" edge="1" parent="1" target="ctGU4KIR7K0SBVt-7xmt-12">
          <mxGeometry relative="1" as="geometry">
            <mxPoint x="440" y="420" as="sourcePoint" />
          </mxGeometry>
        </mxCell>
        <mxCell id="ctGU4KIR7K0SBVt-7xmt-5" style="edgeStyle=orthogonalEdgeStyle;rounded=0;orthogonalLoop=1;jettySize=auto;html=1;" edge="1" parent="1" source="ctGU4KIR7K0SBVt-7xmt-2" target="ctGU4KIR7K0SBVt-7xmt-3">
          <mxGeometry relative="1" as="geometry" />
        </mxCell>
        <mxCell id="ctGU4KIR7K0SBVt-7xmt-2" value="输入教师工号" style="rounded=1;whiteSpace=wrap;html=1;absoluteArcSize=1;arcSize=14;strokeWidth=2;" vertex="1" parent="1">
          <mxGeometry x="390" y="560" width="100" height="50" as="geometry" />
        </mxCell>
        <mxCell id="ctGU4KIR7K0SBVt-7xmt-6" style="edgeStyle=orthogonalEdgeStyle;rounded=0;orthogonalLoop=1;jettySize=auto;html=1;entryX=1;entryY=0.5;entryDx=0;entryDy=0;exitX=1;exitY=0.5;exitDx=0;exitDy=0;exitPerimeter=0;" edge="1" parent="1" source="ctGU4KIR7K0SBVt-7xmt-3" target="ctGU4KIR7K0SBVt-7xmt-2">
          <mxGeometry relative="1" as="geometry">
            <Array as="points">
              <mxPoint x="540" y="700" />
              <mxPoint x="540" y="585" />
            </Array>
          </mxGeometry>
        </mxCell>
        <mxCell id="ctGU4KIR7K0SBVt-7xmt-7" style="edgeStyle=orthogonalEdgeStyle;rounded=0;orthogonalLoop=1;jettySize=auto;html=1;entryX=0.5;entryY=0;entryDx=0;entryDy=0;" edge="1" parent="1" source="ctGU4KIR7K0SBVt-7xmt-3" target="ctGU4KIR7K0SBVt-7xmt-8">
          <mxGeometry relative="1" as="geometry">
            <mxPoint x="440" y="830" as="targetPoint" />
          </mxGeometry>
        </mxCell>
        <mxCell id="ctGU4KIR7K0SBVt-7xmt-3" value="教师存在？" style="strokeWidth=2;html=1;shape=mxgraph.flowchart.decision;whiteSpace=wrap;" vertex="1" parent="1">
          <mxGeometry x="390" y="650" width="100" height="100" as="geometry" />
        </mxCell>
        <mxCell id="ctGU4KIR7K0SBVt-7xmt-8" value="添加到课程列表" style="rounded=1;whiteSpace=wrap;html=1;absoluteArcSize=1;arcSize=14;strokeWidth=2;" vertex="1" parent="1">
          <mxGeometry x="390" y="800" width="100" height="50" as="geometry" />
        </mxCell>
        <mxCell id="ctGU4KIR7K0SBVt-7xmt-9" value="结束" style="strokeWidth=2;html=1;shape=mxgraph.flowchart.terminator;whiteSpace=wrap;" vertex="1" parent="1">
          <mxGeometry x="390" y="900" width="100" height="60" as="geometry" />
        </mxCell>
        <mxCell id="ctGU4KIR7K0SBVt-7xmt-11" value="Yes" style="text;html=1;align=center;verticalAlign=middle;whiteSpace=wrap;rounded=0;" vertex="1" parent="1">
          <mxGeometry x="450" y="750" width="60" height="30" as="geometry" />
        </mxCell>
        <mxCell id="ctGU4KIR7K0SBVt-7xmt-14" style="edgeStyle=orthogonalEdgeStyle;rounded=0;orthogonalLoop=1;jettySize=auto;html=1;" edge="1" parent="1" source="ctGU4KIR7K0SBVt-7xmt-12" target="ctGU4KIR7K0SBVt-7xmt-2">
          <mxGeometry relative="1" as="geometry" />
        </mxCell>
        <mxCell id="ctGU4KIR7K0SBVt-7xmt-12" value="输入课程名" style="rounded=1;whiteSpace=wrap;html=1;absoluteArcSize=1;arcSize=14;strokeWidth=2;" vertex="1" parent="1">
          <mxGeometry x="390" y="470" width="100" height="50" as="geometry" />
        </mxCell>
        <mxCell id="ctGU4KIR7K0SBVt-7xmt-15" value="No" style="text;html=1;align=center;verticalAlign=middle;whiteSpace=wrap;rounded=0;" vertex="1" parent="1">
          <mxGeometry x="540" y="620" width="60" height="30" as="geometry" />
        </mxCell>
        <mxCell id="ctGU4KIR7K0SBVt-7xmt-22" style="edgeStyle=orthogonalEdgeStyle;rounded=0;orthogonalLoop=1;jettySize=auto;html=1;" edge="1" parent="1" target="ctGU4KIR7K0SBVt-7xmt-21">
          <mxGeometry relative="1" as="geometry">
            <mxPoint x="980" y="430" as="sourcePoint" />
          </mxGeometry>
        </mxCell>
        <mxCell id="ctGU4KIR7K0SBVt-7xmt-44" value="" style="edgeStyle=orthogonalEdgeStyle;rounded=0;orthogonalLoop=1;jettySize=auto;html=1;" edge="1" parent="1" target="ctGU4KIR7K0SBVt-7xmt-21">
          <mxGeometry relative="1" as="geometry">
            <mxPoint x="980" y="430" as="sourcePoint" />
          </mxGeometry>
        </mxCell>
        <mxCell id="ctGU4KIR7K0SBVt-7xmt-18" value="课程存在？" style="strokeWidth=2;html=1;shape=mxgraph.flowchart.decision;whiteSpace=wrap;" vertex="1" parent="1">
          <mxGeometry x="930" y="570" width="100" height="100" as="geometry" />
        </mxCell>
        <mxCell id="ctGU4KIR7K0SBVt-7xmt-19" value="添加课程注册记录" style="rounded=1;whiteSpace=wrap;html=1;absoluteArcSize=1;arcSize=14;strokeWidth=2;" vertex="1" parent="1">
          <mxGeometry x="930" y="740" width="100" height="50" as="geometry" />
        </mxCell>
        <mxCell id="ctGU4KIR7K0SBVt-7xmt-20" value="结束" style="strokeWidth=2;html=1;shape=mxgraph.flowchart.terminator;whiteSpace=wrap;" vertex="1" parent="1">
          <mxGeometry x="930" y="900" width="100" height="60" as="geometry" />
        </mxCell>
        <mxCell id="ctGU4KIR7K0SBVt-7xmt-25" style="edgeStyle=orthogonalEdgeStyle;rounded=0;orthogonalLoop=1;jettySize=auto;html=1;" edge="1" parent="1" source="ctGU4KIR7K0SBVt-7xmt-21" target="ctGU4KIR7K0SBVt-7xmt-18">
          <mxGeometry relative="1" as="geometry" />
        </mxCell>
        <mxCell id="ctGU4KIR7K0SBVt-7xmt-21" value="输入课程名和教师工号" style="rounded=1;whiteSpace=wrap;html=1;absoluteArcSize=1;arcSize=14;strokeWidth=2;" vertex="1" parent="1">
          <mxGeometry x="930" y="480" width="100" height="50" as="geometry" />
        </mxCell>
        <mxCell id="ctGU4KIR7K0SBVt-7xmt-26" style="edgeStyle=orthogonalEdgeStyle;rounded=0;orthogonalLoop=1;jettySize=auto;html=1;entryX=1;entryY=0.5;entryDx=0;entryDy=0;exitX=1;exitY=0.5;exitDx=0;exitDy=0;exitPerimeter=0;" edge="1" parent="1" source="ctGU4KIR7K0SBVt-7xmt-18">
          <mxGeometry relative="1" as="geometry">
            <mxPoint x="1030" y="625" as="sourcePoint" />
            <mxPoint x="1030" y="510" as="targetPoint" />
            <Array as="points">
              <mxPoint x="1080" y="620" />
              <mxPoint x="1080" y="510" />
            </Array>
          </mxGeometry>
        </mxCell>
        <mxCell id="ctGU4KIR7K0SBVt-7xmt-27" style="edgeStyle=orthogonalEdgeStyle;rounded=0;orthogonalLoop=1;jettySize=auto;html=1;entryX=0.5;entryY=0;entryDx=0;entryDy=0;exitX=0.5;exitY=1;exitDx=0;exitDy=0;exitPerimeter=0;" edge="1" parent="1" source="ctGU4KIR7K0SBVt-7xmt-18" target="ctGU4KIR7K0SBVt-7xmt-19">
          <mxGeometry relative="1" as="geometry">
            <mxPoint x="980" y="725" as="targetPoint" />
            <mxPoint x="980" y="675" as="sourcePoint" />
          </mxGeometry>
        </mxCell>
        <mxCell id="ctGU4KIR7K0SBVt-7xmt-28" value="Yes" style="text;html=1;align=center;verticalAlign=middle;whiteSpace=wrap;rounded=0;" vertex="1" parent="1">
          <mxGeometry x="990" y="675" width="60" height="30" as="geometry" />
        </mxCell>
        <mxCell id="ctGU4KIR7K0SBVt-7xmt-29" value="No" style="text;html=1;align=center;verticalAlign=middle;whiteSpace=wrap;rounded=0;" vertex="1" parent="1">
          <mxGeometry x="1080" y="560" width="60" height="30" as="geometry" />
        </mxCell>
        <mxCell id="ctGU4KIR7K0SBVt-7xmt-35" style="edgeStyle=orthogonalEdgeStyle;rounded=0;orthogonalLoop=1;jettySize=auto;html=1;" edge="1" parent="1" source="ctGU4KIR7K0SBVt-7xmt-33" target="ctGU4KIR7K0SBVt-7xmt-34">
          <mxGeometry relative="1" as="geometry" />
        </mxCell>
        <mxCell id="ctGU4KIR7K0SBVt-7xmt-33" value="开始" style="strokeWidth=2;html=1;shape=mxgraph.flowchart.start_1;whiteSpace=wrap;" vertex="1" parent="1">
          <mxGeometry x="390" y="210" width="100" height="60" as="geometry" />
        </mxCell>
        <mxCell id="ctGU4KIR7K0SBVt-7xmt-37" style="edgeStyle=orthogonalEdgeStyle;rounded=0;orthogonalLoop=1;jettySize=auto;html=1;" edge="1" parent="1" source="ctGU4KIR7K0SBVt-7xmt-34" target="ctGU4KIR7K0SBVt-7xmt-9">
          <mxGeometry relative="1" as="geometry">
            <Array as="points">
              <mxPoint x="250" y="370" />
              <mxPoint x="250" y="930" />
            </Array>
          </mxGeometry>
        </mxCell>
        <mxCell id="ctGU4KIR7K0SBVt-7xmt-34" value="菜单选项" style="strokeWidth=2;html=1;shape=mxgraph.flowchart.decision;whiteSpace=wrap;" vertex="1" parent="1">
          <mxGeometry x="390" y="320" width="100" height="100" as="geometry" />
        </mxCell>
        <mxCell id="ctGU4KIR7K0SBVt-7xmt-36" value="1" style="text;html=1;align=center;verticalAlign=middle;resizable=0;points=[];autosize=1;strokeColor=none;fillColor=none;" vertex="1" parent="1">
          <mxGeometry x="445" y="428" width="30" height="30" as="geometry" />
        </mxCell>
        <mxCell id="ctGU4KIR7K0SBVt-7xmt-38" style="edgeStyle=orthogonalEdgeStyle;rounded=0;orthogonalLoop=1;jettySize=auto;html=1;" edge="1" parent="1" source="ctGU4KIR7K0SBVt-7xmt-8">
          <mxGeometry relative="1" as="geometry">
            <mxPoint x="490" y="370" as="targetPoint" />
            <Array as="points">
              <mxPoint x="620" y="825" />
              <mxPoint x="620" y="370" />
            </Array>
          </mxGeometry>
        </mxCell>
        <mxCell id="ctGU4KIR7K0SBVt-7xmt-39" value="0" style="text;html=1;align=center;verticalAlign=middle;resizable=0;points=[];autosize=1;strokeColor=none;fillColor=none;" vertex="1" parent="1">
          <mxGeometry x="355" y="370" width="30" height="30" as="geometry" />
        </mxCell>
        <mxCell id="ctGU4KIR7K0SBVt-7xmt-42" value="开始" style="strokeWidth=2;html=1;shape=mxgraph.flowchart.start_1;whiteSpace=wrap;" vertex="1" parent="1">
          <mxGeometry x="930" y="210" width="100" height="60" as="geometry" />
        </mxCell>
        <mxCell id="ctGU4KIR7K0SBVt-7xmt-45" value="" style="edgeStyle=orthogonalEdgeStyle;rounded=0;orthogonalLoop=1;jettySize=auto;html=1;" edge="1" parent="1" source="ctGU4KIR7K0SBVt-7xmt-43" target="ctGU4KIR7K0SBVt-7xmt-21">
          <mxGeometry relative="1" as="geometry" />
        </mxCell>
        <mxCell id="ctGU4KIR7K0SBVt-7xmt-52" style="edgeStyle=orthogonalEdgeStyle;rounded=0;orthogonalLoop=1;jettySize=auto;html=1;entryX=0;entryY=0.5;entryDx=0;entryDy=0;exitX=0.5;exitY=1;exitDx=0;exitDy=0;exitPerimeter=0;" edge="1" parent="1" source="ctGU4KIR7K0SBVt-7xmt-43" target="ctGU4KIR7K0SBVt-7xmt-55">
          <mxGeometry relative="1" as="geometry">
            <mxPoint x="1199.9999999999995" y="480" as="targetPoint" />
            <Array as="points">
              <mxPoint x="980" y="445" />
            </Array>
          </mxGeometry>
        </mxCell>
        <mxCell id="ctGU4KIR7K0SBVt-7xmt-43" value="菜单选项" style="strokeWidth=2;html=1;shape=mxgraph.flowchart.decision;whiteSpace=wrap;" vertex="1" parent="1">
          <mxGeometry x="930" y="320" width="100" height="100" as="geometry" />
        </mxCell>
        <mxCell id="ctGU4KIR7K0SBVt-7xmt-46" style="edgeStyle=orthogonalEdgeStyle;rounded=0;orthogonalLoop=1;jettySize=auto;html=1;entryX=0.5;entryY=0;entryDx=0;entryDy=0;entryPerimeter=0;" edge="1" parent="1" source="ctGU4KIR7K0SBVt-7xmt-42" target="ctGU4KIR7K0SBVt-7xmt-43">
          <mxGeometry relative="1" as="geometry" />
        </mxCell>
        <mxCell id="ctGU4KIR7K0SBVt-7xmt-47" style="edgeStyle=orthogonalEdgeStyle;rounded=0;orthogonalLoop=1;jettySize=auto;html=1;entryX=0;entryY=0.5;entryDx=0;entryDy=0;entryPerimeter=0;" edge="1" parent="1" source="ctGU4KIR7K0SBVt-7xmt-43" target="ctGU4KIR7K0SBVt-7xmt-20">
          <mxGeometry relative="1" as="geometry">
            <Array as="points">
              <mxPoint x="800" y="370" />
              <mxPoint x="800" y="930" />
            </Array>
          </mxGeometry>
        </mxCell>
        <mxCell id="ctGU4KIR7K0SBVt-7xmt-48" value="1" style="text;html=1;align=center;verticalAlign=middle;resizable=0;points=[];autosize=1;strokeColor=none;fillColor=none;" vertex="1" parent="1">
          <mxGeometry x="940" y="420" width="30" height="30" as="geometry" />
        </mxCell>
        <mxCell id="ctGU4KIR7K0SBVt-7xmt-49" value="0" style="text;html=1;align=center;verticalAlign=middle;resizable=0;points=[];autosize=1;strokeColor=none;fillColor=none;" vertex="1" parent="1">
          <mxGeometry x="895" y="378" width="30" height="30" as="geometry" />
        </mxCell>
        <mxCell id="ctGU4KIR7K0SBVt-7xmt-50" style="edgeStyle=orthogonalEdgeStyle;rounded=0;orthogonalLoop=1;jettySize=auto;html=1;entryX=1;entryY=0.5;entryDx=0;entryDy=0;entryPerimeter=0;" edge="1" parent="1" source="ctGU4KIR7K0SBVt-7xmt-19" target="ctGU4KIR7K0SBVt-7xmt-43">
          <mxGeometry relative="1" as="geometry">
            <Array as="points">
              <mxPoint x="980" y="870" />
              <mxPoint x="1320" y="870" />
              <mxPoint x="1320" y="370" />
            </Array>
          </mxGeometry>
        </mxCell>
        <mxCell id="ctGU4KIR7K0SBVt-7xmt-55" value="获取所有该学生注册的课程" style="rounded=1;whiteSpace=wrap;html=1;absoluteArcSize=1;arcSize=14;strokeWidth=2;" vertex="1" parent="1">
          <mxGeometry x="1190" y="420" width="100" height="50" as="geometry" />
        </mxCell>
        <mxCell id="ctGU4KIR7K0SBVt-7xmt-56" style="edgeStyle=orthogonalEdgeStyle;rounded=0;orthogonalLoop=1;jettySize=auto;html=1;entryX=1;entryY=0.5;entryDx=0;entryDy=0;entryPerimeter=0;" edge="1" parent="1" source="ctGU4KIR7K0SBVt-7xmt-55" target="ctGU4KIR7K0SBVt-7xmt-43">
          <mxGeometry relative="1" as="geometry">
            <Array as="points">
              <mxPoint x="1240" y="370" />
            </Array>
          </mxGeometry>
        </mxCell>
        <mxCell id="ctGU4KIR7K0SBVt-7xmt-57" value="2" style="text;html=1;align=center;verticalAlign=middle;resizable=0;points=[];autosize=1;strokeColor=none;fillColor=none;" vertex="1" parent="1">
          <mxGeometry x="1005" y="408" width="30" height="30" as="geometry" />
        </mxCell>
        <mxCell id="ctGU4KIR7K0SBVt-7xmt-58" style="edgeStyle=orthogonalEdgeStyle;rounded=0;orthogonalLoop=1;jettySize=auto;html=1;entryX=0.5;entryY=0;entryDx=0;entryDy=0;" edge="1" parent="1" target="ctGU4KIR7K0SBVt-7xmt-68">
          <mxGeometry relative="1" as="geometry">
            <mxPoint x="1540" y="420" as="sourcePoint" />
          </mxGeometry>
        </mxCell>
        <mxCell id="ctGU4KIR7K0SBVt-7xmt-65" value="结束" style="strokeWidth=2;html=1;shape=mxgraph.flowchart.terminator;whiteSpace=wrap;" vertex="1" parent="1">
          <mxGeometry x="1485" y="570" width="100" height="60" as="geometry" />
        </mxCell>
        <mxCell id="ctGU4KIR7K0SBVt-7xmt-68" value="返回班级列表" style="rounded=1;whiteSpace=wrap;html=1;absoluteArcSize=1;arcSize=14;strokeWidth=2;" vertex="1" parent="1">
          <mxGeometry x="1490" y="470" width="100" height="50" as="geometry" />
        </mxCell>
        <mxCell id="ctGU4KIR7K0SBVt-7xmt-70" style="edgeStyle=orthogonalEdgeStyle;rounded=0;orthogonalLoop=1;jettySize=auto;html=1;" edge="1" parent="1" source="ctGU4KIR7K0SBVt-7xmt-71" target="ctGU4KIR7K0SBVt-7xmt-73">
          <mxGeometry relative="1" as="geometry" />
        </mxCell>
        <mxCell id="ctGU4KIR7K0SBVt-7xmt-71" value="开始" style="strokeWidth=2;html=1;shape=mxgraph.flowchart.start_1;whiteSpace=wrap;" vertex="1" parent="1">
          <mxGeometry x="1490" y="210" width="100" height="60" as="geometry" />
        </mxCell>
        <mxCell id="ctGU4KIR7K0SBVt-7xmt-72" style="edgeStyle=orthogonalEdgeStyle;rounded=0;orthogonalLoop=1;jettySize=auto;html=1;" edge="1" parent="1" source="ctGU4KIR7K0SBVt-7xmt-73" target="ctGU4KIR7K0SBVt-7xmt-65">
          <mxGeometry relative="1" as="geometry">
            <Array as="points">
              <mxPoint x="1410" y="370" />
              <mxPoint x="1410" y="600" />
            </Array>
          </mxGeometry>
        </mxCell>
        <mxCell id="ctGU4KIR7K0SBVt-7xmt-73" value="菜单选项" style="strokeWidth=2;html=1;shape=mxgraph.flowchart.decision;whiteSpace=wrap;" vertex="1" parent="1">
          <mxGeometry x="1490" y="320" width="100" height="100" as="geometry" />
        </mxCell>
        <mxCell id="ctGU4KIR7K0SBVt-7xmt-74" value="1" style="text;html=1;align=center;verticalAlign=middle;resizable=0;points=[];autosize=1;strokeColor=none;fillColor=none;" vertex="1" parent="1">
          <mxGeometry x="1545" y="428" width="30" height="30" as="geometry" />
        </mxCell>
        <mxCell id="ctGU4KIR7K0SBVt-7xmt-76" value="0" style="text;html=1;align=center;verticalAlign=middle;resizable=0;points=[];autosize=1;strokeColor=none;fillColor=none;" vertex="1" parent="1">
          <mxGeometry x="1455" y="370" width="30" height="30" as="geometry" />
        </mxCell>
        <mxCell id="ctGU4KIR7K0SBVt-7xmt-77" style="edgeStyle=orthogonalEdgeStyle;rounded=0;orthogonalLoop=1;jettySize=auto;html=1;entryX=1;entryY=0.5;entryDx=0;entryDy=0;entryPerimeter=0;" edge="1" parent="1" source="ctGU4KIR7K0SBVt-7xmt-68" target="ctGU4KIR7K0SBVt-7xmt-73">
          <mxGeometry relative="1" as="geometry">
            <Array as="points">
              <mxPoint x="1660" y="495" />
              <mxPoint x="1660" y="370" />
            </Array>
          </mxGeometry>
        </mxCell>
        <mxCell id="ctGU4KIR7K0SBVt-7xmt-78" value="开始" style="strokeWidth=2;html=1;shape=mxgraph.flowchart.start_1;whiteSpace=wrap;" vertex="1" parent="1">
          <mxGeometry x="930" y="-300" width="100" height="60" as="geometry" />
        </mxCell>
        <mxCell id="ctGU4KIR7K0SBVt-7xmt-79" value="输入&lt;span style=&quot;color: rgba(0, 0, 0, 0); font-family: monospace; font-size: 0px; text-align: start; text-wrap: nowrap;&quot;&gt;%3CmxGraphModel%3E%3Croot%3E%3CmxCell%20id%3D%220%22%2F%3E%3CmxCell%20id%3D%221%22%20parent%3D%220%22%2F%3E%3CmxCell%20id%3D%222%22%20value%3D%22%E7%94%A8%E6%88%B7%E5%AD%98%E5%9C%A8%E4%B8%94%E5%AF%86%E7%A0%81%E6%AD%A3%E7%A1%AE%EF%BC%9F%22%20style%3D%22strokeWidth%3D2%3Bhtml%3D1%3Bshape%3Dmxgraph.flowchart.decision%3BwhiteSpace%3Dwrap%3B%22%20vertex%3D%221%22%20parent%3D%221%22%3E%3CmxGeometry%20x%3D%22690%22%20y%3D%2240%22%20width%3D%22120%22%20height%3D%22130%22%20as%3D%22geometry%22%2F%3E%3C%2FmxCell%3E%3C%2Froot%3E%3C%2FmxGraphModel%3E&lt;/span&gt;工号和密码" style="rounded=1;whiteSpace=wrap;html=1;absoluteArcSize=1;arcSize=14;strokeWidth=2;" vertex="1" parent="1">
          <mxGeometry x="390" y="-50" width="100" height="50" as="geometry" />
        </mxCell>
        <mxCell id="ctGU4KIR7K0SBVt-7xmt-85" style="edgeStyle=orthogonalEdgeStyle;rounded=0;orthogonalLoop=1;jettySize=auto;html=1;entryX=0.5;entryY=0;entryDx=0;entryDy=0;" edge="1" parent="1" source="ctGU4KIR7K0SBVt-7xmt-82" target="ctGU4KIR7K0SBVt-7xmt-79">
          <mxGeometry relative="1" as="geometry">
            <mxPoint x="430" y="-40" as="targetPoint" />
          </mxGeometry>
        </mxCell>
        <mxCell id="ctGU4KIR7K0SBVt-7xmt-94" style="edgeStyle=orthogonalEdgeStyle;rounded=0;orthogonalLoop=1;jettySize=auto;html=1;entryX=0.5;entryY=0;entryDx=0;entryDy=0;" edge="1" parent="1" source="ctGU4KIR7K0SBVt-7xmt-82" target="ctGU4KIR7K0SBVt-7xmt-86">
          <mxGeometry relative="1" as="geometry" />
        </mxCell>
        <mxCell id="ctGU4KIR7K0SBVt-7xmt-95" style="edgeStyle=orthogonalEdgeStyle;rounded=0;orthogonalLoop=1;jettySize=auto;html=1;entryX=0.5;entryY=0;entryDx=0;entryDy=0;" edge="1" parent="1" source="ctGU4KIR7K0SBVt-7xmt-82" target="ctGU4KIR7K0SBVt-7xmt-87">
          <mxGeometry relative="1" as="geometry" />
        </mxCell>
        <mxCell id="ctGU4KIR7K0SBVt-7xmt-82" value="选择角色" style="strokeWidth=2;html=1;shape=mxgraph.flowchart.decision;whiteSpace=wrap;" vertex="1" parent="1">
          <mxGeometry x="920" y="-210" width="120" height="120" as="geometry" />
        </mxCell>
        <mxCell id="ctGU4KIR7K0SBVt-7xmt-84" style="edgeStyle=orthogonalEdgeStyle;rounded=0;orthogonalLoop=1;jettySize=auto;html=1;entryX=0.5;entryY=0;entryDx=0;entryDy=0;entryPerimeter=0;" edge="1" parent="1" source="ctGU4KIR7K0SBVt-7xmt-78" target="ctGU4KIR7K0SBVt-7xmt-82">
          <mxGeometry relative="1" as="geometry" />
        </mxCell>
        <mxCell id="ctGU4KIR7K0SBVt-7xmt-103" style="edgeStyle=orthogonalEdgeStyle;rounded=0;orthogonalLoop=1;jettySize=auto;html=1;" edge="1" parent="1" source="ctGU4KIR7K0SBVt-7xmt-86" target="ctGU4KIR7K0SBVt-7xmt-88">
          <mxGeometry relative="1" as="geometry" />
        </mxCell>
        <mxCell id="ctGU4KIR7K0SBVt-7xmt-86" value="&lt;div style=&quot;text-align: start;&quot;&gt;&lt;span style=&quot;background-color: initial;&quot;&gt;输入学号&lt;/span&gt;&lt;span style=&quot;background-color: initial; text-align: center;&quot;&gt;和密码&lt;/span&gt;&lt;/div&gt;" style="rounded=1;whiteSpace=wrap;html=1;absoluteArcSize=1;arcSize=14;strokeWidth=2;" vertex="1" parent="1">
          <mxGeometry x="930" y="-50" width="100" height="50" as="geometry" />
        </mxCell>
        <mxCell id="ctGU4KIR7K0SBVt-7xmt-108" value="" style="edgeStyle=orthogonalEdgeStyle;rounded=0;orthogonalLoop=1;jettySize=auto;html=1;" edge="1" parent="1" source="ctGU4KIR7K0SBVt-7xmt-87" target="ctGU4KIR7K0SBVt-7xmt-91">
          <mxGeometry relative="1" as="geometry" />
        </mxCell>
        <mxCell id="ctGU4KIR7K0SBVt-7xmt-87" value="输入&lt;span style=&quot;color: rgba(0, 0, 0, 0); font-family: monospace; font-size: 0px; text-align: start; text-wrap: nowrap;&quot;&gt;%3CmxGraphModel%3E%3Croot%3E%3CmxCell%20id%3D%220%22%2F%3E%3CmxCell%20id%3D%221%22%20parent%3D%220%22%2F%3E%3CmxCell%20id%3D%222%22%20value%3D%22%E7%94%A8%E6%88%B7%E5%AD%98%E5%9C%A8%E4%B8%94%E5%AF%86%E7%A0%81%E6%AD%A3%E7%A1%AE%EF%BC%9F%22%20style%3D%22strokeWidth%3D2%3Bhtml%3D1%3Bshape%3Dmxgraph.flowchart.decision%3BwhiteSpace%3Dwrap%3B%22%20vertex%3D%221%22%20parent%3D%221%22%3E%3CmxGeometry%20x%3D%22690%22%20y%3D%2240%22%20width%3D%22120%22%20height%3D%22130%22%20as%3D%22geometry%22%2F%3E%3C%2FmxCell%3E%3C%2Froot%3E%3C%2FmxGraphModel%3E&lt;/span&gt;工号和密码" style="rounded=1;whiteSpace=wrap;html=1;absoluteArcSize=1;arcSize=14;strokeWidth=2;" vertex="1" parent="1">
          <mxGeometry x="1490" y="-50" width="100" height="50" as="geometry" />
        </mxCell>
        <mxCell id="ctGU4KIR7K0SBVt-7xmt-96" style="edgeStyle=orthogonalEdgeStyle;rounded=0;orthogonalLoop=1;jettySize=auto;html=1;entryX=1;entryY=0.25;entryDx=0;entryDy=0;" edge="1" parent="1" source="ctGU4KIR7K0SBVt-7xmt-88" target="ctGU4KIR7K0SBVt-7xmt-86">
          <mxGeometry relative="1" as="geometry">
            <Array as="points">
              <mxPoint x="1100" y="95" />
              <mxPoint x="1100" y="-37" />
            </Array>
          </mxGeometry>
        </mxCell>
        <mxCell id="ctGU4KIR7K0SBVt-7xmt-88" value="用户存在且密码正确？" style="strokeWidth=2;html=1;shape=mxgraph.flowchart.decision;whiteSpace=wrap;" vertex="1" parent="1">
          <mxGeometry x="920" y="40" width="120" height="110" as="geometry" />
        </mxCell>
        <mxCell id="ctGU4KIR7K0SBVt-7xmt-97" style="edgeStyle=orthogonalEdgeStyle;rounded=0;orthogonalLoop=1;jettySize=auto;html=1;entryX=1;entryY=0.25;entryDx=0;entryDy=0;exitX=1;exitY=0.5;exitDx=0;exitDy=0;exitPerimeter=0;" edge="1" parent="1" source="ctGU4KIR7K0SBVt-7xmt-90" target="ctGU4KIR7K0SBVt-7xmt-79">
          <mxGeometry relative="1" as="geometry">
            <Array as="points">
              <mxPoint x="570" y="95" />
              <mxPoint x="570" y="-27" />
            </Array>
          </mxGeometry>
        </mxCell>
        <mxCell id="ctGU4KIR7K0SBVt-7xmt-99" value="" style="edgeStyle=orthogonalEdgeStyle;rounded=0;orthogonalLoop=1;jettySize=auto;html=1;" edge="1" parent="1" source="ctGU4KIR7K0SBVt-7xmt-90" target="ctGU4KIR7K0SBVt-7xmt-33">
          <mxGeometry relative="1" as="geometry" />
        </mxCell>
        <mxCell id="ctGU4KIR7K0SBVt-7xmt-90" value="用户存在且密码正确？" style="strokeWidth=2;html=1;shape=mxgraph.flowchart.decision;whiteSpace=wrap;" vertex="1" parent="1">
          <mxGeometry x="375" y="40" width="130" height="110" as="geometry" />
        </mxCell>
        <mxCell id="ctGU4KIR7K0SBVt-7xmt-93" style="edgeStyle=orthogonalEdgeStyle;rounded=0;orthogonalLoop=1;jettySize=auto;html=1;entryX=1;entryY=0.25;entryDx=0;entryDy=0;exitX=1;exitY=0.5;exitDx=0;exitDy=0;exitPerimeter=0;" edge="1" parent="1" source="ctGU4KIR7K0SBVt-7xmt-91" target="ctGU4KIR7K0SBVt-7xmt-87">
          <mxGeometry relative="1" as="geometry">
            <Array as="points">
              <mxPoint x="1640" y="95" />
              <mxPoint x="1640" y="-37" />
            </Array>
          </mxGeometry>
        </mxCell>
        <mxCell id="ctGU4KIR7K0SBVt-7xmt-109" value="" style="edgeStyle=orthogonalEdgeStyle;rounded=0;orthogonalLoop=1;jettySize=auto;html=1;" edge="1" parent="1" source="ctGU4KIR7K0SBVt-7xmt-91" target="ctGU4KIR7K0SBVt-7xmt-71">
          <mxGeometry relative="1" as="geometry" />
        </mxCell>
        <mxCell id="ctGU4KIR7K0SBVt-7xmt-91" value="用户存在且密码正确？" style="strokeWidth=2;html=1;shape=mxgraph.flowchart.decision;whiteSpace=wrap;" vertex="1" parent="1">
          <mxGeometry x="1475" y="40" width="130" height="110" as="geometry" />
        </mxCell>
        <mxCell id="ctGU4KIR7K0SBVt-7xmt-98" style="edgeStyle=orthogonalEdgeStyle;rounded=0;orthogonalLoop=1;jettySize=auto;html=1;entryX=0.5;entryY=0;entryDx=0;entryDy=0;entryPerimeter=0;" edge="1" parent="1" source="ctGU4KIR7K0SBVt-7xmt-79" target="ctGU4KIR7K0SBVt-7xmt-90">
          <mxGeometry relative="1" as="geometry" />
        </mxCell>
        <mxCell id="ctGU4KIR7K0SBVt-7xmt-100" value="Yes" style="text;html=1;align=center;verticalAlign=middle;resizable=0;points=[];autosize=1;strokeColor=none;fillColor=none;" vertex="1" parent="1">
          <mxGeometry x="440" y="168" width="40" height="30" as="geometry" />
        </mxCell>
        <mxCell id="ctGU4KIR7K0SBVt-7xmt-101" value="No" style="text;html=1;align=center;verticalAlign=middle;resizable=0;points=[];autosize=1;strokeColor=none;fillColor=none;" vertex="1" parent="1">
          <mxGeometry x="570" y="40" width="40" height="30" as="geometry" />
        </mxCell>
        <mxCell id="ctGU4KIR7K0SBVt-7xmt-102" value="Yes" style="text;html=1;align=center;verticalAlign=middle;resizable=0;points=[];autosize=1;strokeColor=none;fillColor=none;" vertex="1" parent="1">
          <mxGeometry x="990" y="150" width="40" height="30" as="geometry" />
        </mxCell>
        <mxCell id="ctGU4KIR7K0SBVt-7xmt-104" style="edgeStyle=orthogonalEdgeStyle;rounded=0;orthogonalLoop=1;jettySize=auto;html=1;entryX=0.5;entryY=0;entryDx=0;entryDy=0;entryPerimeter=0;" edge="1" parent="1" source="ctGU4KIR7K0SBVt-7xmt-88" target="ctGU4KIR7K0SBVt-7xmt-42">
          <mxGeometry relative="1" as="geometry" />
        </mxCell>
        <mxCell id="ctGU4KIR7K0SBVt-7xmt-105" value="No" style="text;html=1;align=center;verticalAlign=middle;resizable=0;points=[];autosize=1;strokeColor=none;fillColor=none;" vertex="1" parent="1">
          <mxGeometry x="1100" y="10" width="40" height="30" as="geometry" />
        </mxCell>
        <mxCell id="ctGU4KIR7K0SBVt-7xmt-106" value="Yes" style="text;html=1;align=center;verticalAlign=middle;resizable=0;points=[];autosize=1;strokeColor=none;fillColor=none;" vertex="1" parent="1">
          <mxGeometry x="1550" y="160" width="40" height="30" as="geometry" />
        </mxCell>
        <mxCell id="ctGU4KIR7K0SBVt-7xmt-107" value="No" style="text;html=1;align=center;verticalAlign=middle;resizable=0;points=[];autosize=1;strokeColor=none;fillColor=none;" vertex="1" parent="1">
          <mxGeometry x="1640" y="20" width="40" height="30" as="geometry" />
        </mxCell>
        <mxCell id="ctGU4KIR7K0SBVt-7xmt-117" style="edgeStyle=orthogonalEdgeStyle;rounded=0;orthogonalLoop=1;jettySize=auto;html=1;" edge="1" parent="1" source="ctGU4KIR7K0SBVt-7xmt-118" target="ctGU4KIR7K0SBVt-7xmt-121">
          <mxGeometry relative="1" as="geometry" />
        </mxCell>
        <mxCell id="ctGU4KIR7K0SBVt-7xmt-118" value="输入教师工号" style="rounded=1;whiteSpace=wrap;html=1;absoluteArcSize=1;arcSize=14;strokeWidth=2;" vertex="1" parent="1">
          <mxGeometry x="1475" y="800" width="100" height="50" as="geometry" />
        </mxCell>
        <mxCell id="ctGU4KIR7K0SBVt-7xmt-119" style="edgeStyle=orthogonalEdgeStyle;rounded=0;orthogonalLoop=1;jettySize=auto;html=1;entryX=1;entryY=0.5;entryDx=0;entryDy=0;exitX=1;exitY=0.5;exitDx=0;exitDy=0;exitPerimeter=0;" edge="1" parent="1" source="ctGU4KIR7K0SBVt-7xmt-121" target="ctGU4KIR7K0SBVt-7xmt-118">
          <mxGeometry relative="1" as="geometry">
            <Array as="points">
              <mxPoint x="1625" y="940" />
              <mxPoint x="1625" y="825" />
            </Array>
          </mxGeometry>
        </mxCell>
        <mxCell id="ctGU4KIR7K0SBVt-7xmt-120" style="edgeStyle=orthogonalEdgeStyle;rounded=0;orthogonalLoop=1;jettySize=auto;html=1;entryX=0.5;entryY=0;entryDx=0;entryDy=0;" edge="1" parent="1" source="ctGU4KIR7K0SBVt-7xmt-121" target="ctGU4KIR7K0SBVt-7xmt-122">
          <mxGeometry relative="1" as="geometry">
            <mxPoint x="1525" y="1070" as="targetPoint" />
          </mxGeometry>
        </mxCell>
        <mxCell id="ctGU4KIR7K0SBVt-7xmt-121" value="教师存在？" style="strokeWidth=2;html=1;shape=mxgraph.flowchart.decision;whiteSpace=wrap;" vertex="1" parent="1">
          <mxGeometry x="1475" y="890" width="100" height="100" as="geometry" />
        </mxCell>
        <mxCell id="ctGU4KIR7K0SBVt-7xmt-122" value="添加到课程列表" style="rounded=1;whiteSpace=wrap;html=1;absoluteArcSize=1;arcSize=14;strokeWidth=2;" vertex="1" parent="1">
          <mxGeometry x="1475" y="1040" width="100" height="50" as="geometry" />
        </mxCell>
        <mxCell id="ctGU4KIR7K0SBVt-7xmt-123" value="Yes" style="text;html=1;align=center;verticalAlign=middle;whiteSpace=wrap;rounded=0;" vertex="1" parent="1">
          <mxGeometry x="1535" y="990" width="60" height="30" as="geometry" />
        </mxCell>
        <mxCell id="ctGU4KIR7K0SBVt-7xmt-124" style="edgeStyle=orthogonalEdgeStyle;rounded=0;orthogonalLoop=1;jettySize=auto;html=1;" edge="1" parent="1" target="ctGU4KIR7K0SBVt-7xmt-118">
          <mxGeometry relative="1" as="geometry">
            <mxPoint x="1525" y="760" as="sourcePoint" />
          </mxGeometry>
        </mxCell>
        <mxCell id="ctGU4KIR7K0SBVt-7xmt-125" value="开始" style="strokeWidth=2;html=1;shape=mxgraph.flowchart.start_1;whiteSpace=wrap;" vertex="1" parent="1">
          <mxGeometry x="1475" y="705" width="100" height="60" as="geometry" />
        </mxCell>
        <mxCell id="ctGU4KIR7K0SBVt-7xmt-126" value="结束" style="strokeWidth=2;html=1;shape=mxgraph.flowchart.terminator;whiteSpace=wrap;" vertex="1" parent="1">
          <mxGeometry x="1475" y="1130" width="100" height="60" as="geometry" />
        </mxCell>
        <mxCell id="ctGU4KIR7K0SBVt-7xmt-127" style="edgeStyle=orthogonalEdgeStyle;rounded=0;orthogonalLoop=1;jettySize=auto;html=1;entryX=0.5;entryY=0;entryDx=0;entryDy=0;entryPerimeter=0;" edge="1" parent="1" source="ctGU4KIR7K0SBVt-7xmt-122" target="ctGU4KIR7K0SBVt-7xmt-126">
          <mxGeometry relative="1" as="geometry" />
        </mxCell>
        <mxCell id="ctGU4KIR7K0SBVt-7xmt-128" value="课程存在？" style="strokeWidth=2;html=1;shape=mxgraph.flowchart.decision;whiteSpace=wrap;" vertex="1" parent="1">
          <mxGeometry x="1060" y="1210" width="100" height="100" as="geometry" />
        </mxCell>
        <mxCell id="ctGU4KIR7K0SBVt-7xmt-138" value="" style="edgeStyle=orthogonalEdgeStyle;rounded=0;orthogonalLoop=1;jettySize=auto;html=1;" edge="1" parent="1" source="ctGU4KIR7K0SBVt-7xmt-129" target="ctGU4KIR7K0SBVt-7xmt-137">
          <mxGeometry relative="1" as="geometry" />
        </mxCell>
        <mxCell id="ctGU4KIR7K0SBVt-7xmt-129" value="添加课程注册记录" style="rounded=1;whiteSpace=wrap;html=1;absoluteArcSize=1;arcSize=14;strokeWidth=2;" vertex="1" parent="1">
          <mxGeometry x="1060" y="1380" width="100" height="50" as="geometry" />
        </mxCell>
        <mxCell id="ctGU4KIR7K0SBVt-7xmt-130" style="edgeStyle=orthogonalEdgeStyle;rounded=0;orthogonalLoop=1;jettySize=auto;html=1;" edge="1" parent="1" source="ctGU4KIR7K0SBVt-7xmt-131" target="ctGU4KIR7K0SBVt-7xmt-128">
          <mxGeometry relative="1" as="geometry" />
        </mxCell>
        <mxCell id="ctGU4KIR7K0SBVt-7xmt-131" value="输入课程名和教师工号" style="rounded=1;whiteSpace=wrap;html=1;absoluteArcSize=1;arcSize=14;strokeWidth=2;" vertex="1" parent="1">
          <mxGeometry x="1060" y="1120" width="100" height="50" as="geometry" />
        </mxCell>
        <mxCell id="ctGU4KIR7K0SBVt-7xmt-132" style="edgeStyle=orthogonalEdgeStyle;rounded=0;orthogonalLoop=1;jettySize=auto;html=1;entryX=1;entryY=0.5;entryDx=0;entryDy=0;exitX=1;exitY=0.5;exitDx=0;exitDy=0;exitPerimeter=0;" edge="1" parent="1" source="ctGU4KIR7K0SBVt-7xmt-128">
          <mxGeometry relative="1" as="geometry">
            <mxPoint x="1160" y="1265" as="sourcePoint" />
            <mxPoint x="1160" y="1150" as="targetPoint" />
            <Array as="points">
              <mxPoint x="1210" y="1260" />
              <mxPoint x="1210" y="1150" />
            </Array>
          </mxGeometry>
        </mxCell>
        <mxCell id="ctGU4KIR7K0SBVt-7xmt-133" style="edgeStyle=orthogonalEdgeStyle;rounded=0;orthogonalLoop=1;jettySize=auto;html=1;entryX=0.5;entryY=0;entryDx=0;entryDy=0;exitX=0.5;exitY=1;exitDx=0;exitDy=0;exitPerimeter=0;" edge="1" parent="1" source="ctGU4KIR7K0SBVt-7xmt-128" target="ctGU4KIR7K0SBVt-7xmt-129">
          <mxGeometry relative="1" as="geometry">
            <mxPoint x="1110" y="1365" as="targetPoint" />
            <mxPoint x="1110" y="1315" as="sourcePoint" />
          </mxGeometry>
        </mxCell>
        <mxCell id="ctGU4KIR7K0SBVt-7xmt-134" value="Yes" style="text;html=1;align=center;verticalAlign=middle;whiteSpace=wrap;rounded=0;" vertex="1" parent="1">
          <mxGeometry x="1120" y="1315" width="60" height="30" as="geometry" />
        </mxCell>
        <mxCell id="ctGU4KIR7K0SBVt-7xmt-136" value="" style="edgeStyle=orthogonalEdgeStyle;rounded=0;orthogonalLoop=1;jettySize=auto;html=1;" edge="1" parent="1" source="ctGU4KIR7K0SBVt-7xmt-135" target="ctGU4KIR7K0SBVt-7xmt-131">
          <mxGeometry relative="1" as="geometry" />
        </mxCell>
        <mxCell id="ctGU4KIR7K0SBVt-7xmt-135" value="开始" style="strokeWidth=2;html=1;shape=mxgraph.flowchart.start_1;whiteSpace=wrap;" vertex="1" parent="1">
          <mxGeometry x="1060" y="1020" width="100" height="60" as="geometry" />
        </mxCell>
        <mxCell id="ctGU4KIR7K0SBVt-7xmt-137" value="结束" style="strokeWidth=2;html=1;shape=mxgraph.flowchart.terminator;whiteSpace=wrap;" vertex="1" parent="1">
          <mxGeometry x="1060" y="1470" width="100" height="60" as="geometry" />
        </mxCell>
        <mxCell id="ctGU4KIR7K0SBVt-7xmt-143" style="edgeStyle=orthogonalEdgeStyle;rounded=0;orthogonalLoop=1;jettySize=auto;html=1;" edge="1" parent="1" source="ctGU4KIR7K0SBVt-7xmt-141" target="ctGU4KIR7K0SBVt-7xmt-142">
          <mxGeometry relative="1" as="geometry" />
        </mxCell>
        <mxCell id="ctGU4KIR7K0SBVt-7xmt-141" value="id一致?" style="strokeWidth=2;html=1;shape=mxgraph.flowchart.decision;whiteSpace=wrap;" vertex="1" parent="1">
          <mxGeometry x="345" y="1300" width="100" height="100" as="geometry" />
        </mxCell>
        <mxCell id="ctGU4KIR7K0SBVt-7xmt-142" value="" style="strokeWidth=2;html=1;shape=mxgraph.flowchart.database;whiteSpace=wrap;" vertex="1" parent="1">
          <mxGeometry x="540" y="1320" width="60" height="60" as="geometry" />
        </mxCell>
        <mxCell id="ctGU4KIR7K0SBVt-7xmt-146" style="edgeStyle=orthogonalEdgeStyle;rounded=0;orthogonalLoop=1;jettySize=auto;html=1;entryX=0;entryY=0.5;entryDx=0;entryDy=0;entryPerimeter=0;" edge="1" parent="1" source="ctGU4KIR7K0SBVt-7xmt-142" target="ctGU4KIR7K0SBVt-7xmt-177">
          <mxGeometry relative="1" as="geometry">
            <mxPoint x="444.99238475781976" y="1559.1273796781352" as="targetPoint" />
            <Array as="points">
              <mxPoint x="570" y="1490" />
              <mxPoint x="345" y="1490" />
            </Array>
          </mxGeometry>
        </mxCell>
        <mxCell id="ctGU4KIR7K0SBVt-7xmt-147" value="No" style="text;html=1;align=center;verticalAlign=middle;resizable=0;points=[];autosize=1;strokeColor=none;fillColor=none;" vertex="1" parent="1">
          <mxGeometry x="345" y="1418" width="40" height="30" as="geometry" />
        </mxCell>
        <mxCell id="ctGU4KIR7K0SBVt-7xmt-148" value="Yes" style="text;html=1;align=center;verticalAlign=middle;resizable=0;points=[];autosize=1;strokeColor=none;fillColor=none;" vertex="1" parent="1">
          <mxGeometry x="450" y="1300" width="40" height="30" as="geometry" />
        </mxCell>
        <mxCell id="ctGU4KIR7K0SBVt-7xmt-178" value="" style="edgeStyle=orthogonalEdgeStyle;rounded=0;orthogonalLoop=1;jettySize=auto;html=1;" edge="1" parent="1" source="ctGU4KIR7K0SBVt-7xmt-149" target="ctGU4KIR7K0SBVt-7xmt-177">
          <mxGeometry relative="1" as="geometry" />
        </mxCell>
        <mxCell id="ctGU4KIR7K0SBVt-7xmt-149" value="" style="strokeWidth=2;html=1;shape=mxgraph.flowchart.database;whiteSpace=wrap;" vertex="1" parent="1">
          <mxGeometry x="365" y="1020" width="60" height="60" as="geometry" />
        </mxCell>
        <mxCell id="ctGU4KIR7K0SBVt-7xmt-153" style="edgeStyle=orthogonalEdgeStyle;rounded=0;orthogonalLoop=1;jettySize=auto;html=1;" edge="1" parent="1" source="ctGU4KIR7K0SBVt-7xmt-154" target="ctGU4KIR7K0SBVt-7xmt-155">
          <mxGeometry relative="1" as="geometry" />
        </mxCell>
        <mxCell id="ctGU4KIR7K0SBVt-7xmt-154" value="id一致?" style="strokeWidth=2;html=1;shape=mxgraph.flowchart.decision;whiteSpace=wrap;" vertex="1" parent="1">
          <mxGeometry x="590" y="1960" width="100" height="100" as="geometry" />
        </mxCell>
        <mxCell id="ctGU4KIR7K0SBVt-7xmt-155" value="用户课程列表" style="strokeWidth=2;html=1;shape=mxgraph.flowchart.database;whiteSpace=wrap;" vertex="1" parent="1">
          <mxGeometry x="795" y="1980" width="60" height="60" as="geometry" />
        </mxCell>
        <mxCell id="ctGU4KIR7K0SBVt-7xmt-158" style="edgeStyle=orthogonalEdgeStyle;rounded=0;orthogonalLoop=1;jettySize=auto;html=1;entryX=0;entryY=0.5;entryDx=0;entryDy=0;entryPerimeter=0;" edge="1" parent="1" source="ctGU4KIR7K0SBVt-7xmt-155" target="ctGU4KIR7K0SBVt-7xmt-170">
          <mxGeometry relative="1" as="geometry">
            <Array as="points">
              <mxPoint x="825" y="2179" />
              <mxPoint x="570" y="2179" />
              <mxPoint x="570" y="1870" />
            </Array>
            <mxPoint x="699.9923847578198" y="2179.127379678135" as="targetPoint" />
          </mxGeometry>
        </mxCell>
        <mxCell id="ctGU4KIR7K0SBVt-7xmt-159" value="No" style="text;html=1;align=center;verticalAlign=middle;resizable=0;points=[];autosize=1;strokeColor=none;fillColor=none;" vertex="1" parent="1">
          <mxGeometry x="530" y="2070" width="40" height="30" as="geometry" />
        </mxCell>
        <mxCell id="ctGU4KIR7K0SBVt-7xmt-160" value="Yes" style="text;html=1;align=center;verticalAlign=middle;resizable=0;points=[];autosize=1;strokeColor=none;fillColor=none;" vertex="1" parent="1">
          <mxGeometry x="690" y="1970" width="40" height="30" as="geometry" />
        </mxCell>
        <mxCell id="ctGU4KIR7K0SBVt-7xmt-161" value="课程列表" style="strokeWidth=2;html=1;shape=mxgraph.flowchart.database;whiteSpace=wrap;" vertex="1" parent="1">
          <mxGeometry x="610" y="1700" width="60" height="60" as="geometry" />
        </mxCell>
        <mxCell id="ctGU4KIR7K0SBVt-7xmt-169" style="edgeStyle=orthogonalEdgeStyle;rounded=0;orthogonalLoop=1;jettySize=auto;html=1;entryX=0;entryY=0.5;entryDx=0;entryDy=0;entryPerimeter=0;exitX=0.5;exitY=1;exitDx=0;exitDy=0;exitPerimeter=0;" edge="1" parent="1" source="ctGU4KIR7K0SBVt-7xmt-154" target="ctGU4KIR7K0SBVt-7xmt-170">
          <mxGeometry relative="1" as="geometry">
            <Array as="points">
              <mxPoint x="640" y="2120" />
              <mxPoint x="500" y="2120" />
              <mxPoint x="500" y="1870" />
            </Array>
          </mxGeometry>
        </mxCell>
        <mxCell id="ctGU4KIR7K0SBVt-7xmt-186" style="edgeStyle=orthogonalEdgeStyle;rounded=0;orthogonalLoop=1;jettySize=auto;html=1;entryX=0;entryY=0.5;entryDx=0;entryDy=0;entryPerimeter=0;" edge="1" parent="1" source="ctGU4KIR7K0SBVt-7xmt-170" target="ctGU4KIR7K0SBVt-7xmt-188">
          <mxGeometry relative="1" as="geometry">
            <mxPoint x="930" y="1870" as="targetPoint" />
          </mxGeometry>
        </mxCell>
        <mxCell id="ctGU4KIR7K0SBVt-7xmt-170" value="遍历结束？" style="strokeWidth=2;html=1;shape=mxgraph.flowchart.decision;whiteSpace=wrap;" vertex="1" parent="1">
          <mxGeometry x="590" y="1820" width="100" height="100" as="geometry" />
        </mxCell>
        <mxCell id="ctGU4KIR7K0SBVt-7xmt-171" value="Yes" style="text;html=1;align=center;verticalAlign=middle;resizable=0;points=[];autosize=1;strokeColor=none;fillColor=none;" vertex="1" parent="1">
          <mxGeometry x="690" y="1830" width="40" height="30" as="geometry" />
        </mxCell>
        <mxCell id="ctGU4KIR7K0SBVt-7xmt-172" value="No" style="text;html=1;align=center;verticalAlign=middle;resizable=0;points=[];autosize=1;strokeColor=none;fillColor=none;" vertex="1" parent="1">
          <mxGeometry x="590" y="1920" width="40" height="30" as="geometry" />
        </mxCell>
        <mxCell id="ctGU4KIR7K0SBVt-7xmt-173" style="edgeStyle=orthogonalEdgeStyle;rounded=0;orthogonalLoop=1;jettySize=auto;html=1;entryX=0.5;entryY=0;entryDx=0;entryDy=0;entryPerimeter=0;" edge="1" parent="1" source="ctGU4KIR7K0SBVt-7xmt-170" target="ctGU4KIR7K0SBVt-7xmt-154">
          <mxGeometry relative="1" as="geometry" />
        </mxCell>
        <mxCell id="ctGU4KIR7K0SBVt-7xmt-175" style="edgeStyle=orthogonalEdgeStyle;rounded=0;orthogonalLoop=1;jettySize=auto;html=1;entryX=0.5;entryY=0;entryDx=0;entryDy=0;entryPerimeter=0;" edge="1" parent="1" source="ctGU4KIR7K0SBVt-7xmt-161" target="ctGU4KIR7K0SBVt-7xmt-170">
          <mxGeometry relative="1" as="geometry" />
        </mxCell>
        <mxCell id="ctGU4KIR7K0SBVt-7xmt-179" value="" style="edgeStyle=orthogonalEdgeStyle;rounded=0;orthogonalLoop=1;jettySize=auto;html=1;" edge="1" parent="1" source="ctGU4KIR7K0SBVt-7xmt-177" target="ctGU4KIR7K0SBVt-7xmt-141">
          <mxGeometry relative="1" as="geometry" />
        </mxCell>
        <mxCell id="ctGU4KIR7K0SBVt-7xmt-181" style="edgeStyle=orthogonalEdgeStyle;rounded=0;orthogonalLoop=1;jettySize=auto;html=1;" edge="1" parent="1" source="ctGU4KIR7K0SBVt-7xmt-177">
          <mxGeometry relative="1" as="geometry">
            <mxPoint x="550" y="1169.9999999999995" as="targetPoint" />
          </mxGeometry>
        </mxCell>
        <mxCell id="ctGU4KIR7K0SBVt-7xmt-177" value="遍历结束？" style="strokeWidth=2;html=1;shape=mxgraph.flowchart.decision;whiteSpace=wrap;" vertex="1" parent="1">
          <mxGeometry x="345" y="1120" width="100" height="100" as="geometry" />
        </mxCell>
        <mxCell id="ctGU4KIR7K0SBVt-7xmt-180" style="edgeStyle=orthogonalEdgeStyle;rounded=0;orthogonalLoop=1;jettySize=auto;html=1;entryX=0;entryY=0.5;entryDx=0;entryDy=0;entryPerimeter=0;" edge="1" parent="1" source="ctGU4KIR7K0SBVt-7xmt-141" target="ctGU4KIR7K0SBVt-7xmt-177">
          <mxGeometry relative="1" as="geometry">
            <Array as="points">
              <mxPoint x="250" y="1350" />
              <mxPoint x="250" y="1170" />
            </Array>
          </mxGeometry>
        </mxCell>
        <mxCell id="ctGU4KIR7K0SBVt-7xmt-182" value="结束" style="strokeWidth=2;html=1;shape=mxgraph.flowchart.terminator;whiteSpace=wrap;" vertex="1" parent="1">
          <mxGeometry x="550" y="1140" width="100" height="60" as="geometry" />
        </mxCell>
        <mxCell id="ctGU4KIR7K0SBVt-7xmt-184" value="" style="edgeStyle=orthogonalEdgeStyle;rounded=0;orthogonalLoop=1;jettySize=auto;html=1;" edge="1" parent="1" source="ctGU4KIR7K0SBVt-7xmt-183" target="ctGU4KIR7K0SBVt-7xmt-149">
          <mxGeometry relative="1" as="geometry" />
        </mxCell>
        <mxCell id="ctGU4KIR7K0SBVt-7xmt-183" value="开始" style="strokeWidth=2;html=1;shape=mxgraph.flowchart.start_1;whiteSpace=wrap;" vertex="1" parent="1">
          <mxGeometry x="210" y="1020" width="100" height="60" as="geometry" />
        </mxCell>
        <mxCell id="ctGU4KIR7K0SBVt-7xmt-192" style="edgeStyle=orthogonalEdgeStyle;rounded=0;orthogonalLoop=1;jettySize=auto;html=1;" edge="1" parent="1" source="ctGU4KIR7K0SBVt-7xmt-188">
          <mxGeometry relative="1" as="geometry">
            <mxPoint x="1120" y="2030" as="targetPoint" />
          </mxGeometry>
        </mxCell>
        <mxCell id="ctGU4KIR7K0SBVt-7xmt-213" value="" style="edgeStyle=orthogonalEdgeStyle;rounded=0;orthogonalLoop=1;jettySize=auto;html=1;" edge="1" parent="1" source="ctGU4KIR7K0SBVt-7xmt-188" target="ctGU4KIR7K0SBVt-7xmt-211">
          <mxGeometry relative="1" as="geometry" />
        </mxCell>
        <mxCell id="ctGU4KIR7K0SBVt-7xmt-188" value="遍历结束？" style="strokeWidth=2;html=1;shape=mxgraph.flowchart.decision;whiteSpace=wrap;" vertex="1" parent="1">
          <mxGeometry x="1070" y="1820" width="100" height="100" as="geometry" />
        </mxCell>
        <mxCell id="ctGU4KIR7K0SBVt-7xmt-190" value="Yes" style="text;html=1;align=center;verticalAlign=middle;resizable=0;points=[];autosize=1;strokeColor=none;fillColor=none;" vertex="1" parent="1">
          <mxGeometry x="1140" y="1790" width="40" height="30" as="geometry" />
        </mxCell>
        <mxCell id="ctGU4KIR7K0SBVt-7xmt-195" value="" style="edgeStyle=orthogonalEdgeStyle;rounded=0;orthogonalLoop=1;jettySize=auto;html=1;" edge="1" parent="1" source="ctGU4KIR7K0SBVt-7xmt-193" target="ctGU4KIR7K0SBVt-7xmt-194">
          <mxGeometry relative="1" as="geometry" />
        </mxCell>
        <mxCell id="ctGU4KIR7K0SBVt-7xmt-193" value="注册记录列表" style="strokeWidth=2;html=1;shape=mxgraph.flowchart.database;whiteSpace=wrap;" vertex="1" parent="1">
          <mxGeometry x="1090" y="2010" width="60" height="60" as="geometry" />
        </mxCell>
        <mxCell id="ctGU4KIR7K0SBVt-7xmt-202" value="" style="edgeStyle=orthogonalEdgeStyle;rounded=0;orthogonalLoop=1;jettySize=auto;html=1;" edge="1" parent="1" source="ctGU4KIR7K0SBVt-7xmt-194" target="ctGU4KIR7K0SBVt-7xmt-197">
          <mxGeometry relative="1" as="geometry" />
        </mxCell>
        <mxCell id="ctGU4KIR7K0SBVt-7xmt-194" value="遍历结束？" style="strokeWidth=2;html=1;shape=mxgraph.flowchart.decision;whiteSpace=wrap;" vertex="1" parent="1">
          <mxGeometry x="1070" y="2150" width="100" height="100" as="geometry" />
        </mxCell>
        <mxCell id="ctGU4KIR7K0SBVt-7xmt-218" style="edgeStyle=orthogonalEdgeStyle;rounded=0;orthogonalLoop=1;jettySize=auto;html=1;entryX=1;entryY=0.5;entryDx=0;entryDy=0;" edge="1" parent="1" source="ctGU4KIR7K0SBVt-7xmt-196" target="ctGU4KIR7K0SBVt-7xmt-211">
          <mxGeometry relative="1" as="geometry">
            <Array as="points">
              <mxPoint x="1460" y="2330" />
              <mxPoint x="1460" y="1740" />
            </Array>
          </mxGeometry>
        </mxCell>
        <mxCell id="ctGU4KIR7K0SBVt-7xmt-196" value="班级列表" style="strokeWidth=2;html=1;shape=mxgraph.flowchart.database;whiteSpace=wrap;" vertex="1" parent="1">
          <mxGeometry x="1270" y="2300" width="60" height="60" as="geometry" />
        </mxCell>
        <mxCell id="ctGU4KIR7K0SBVt-7xmt-198" value="" style="edgeStyle=orthogonalEdgeStyle;rounded=0;orthogonalLoop=1;jettySize=auto;html=1;" edge="1" parent="1" source="ctGU4KIR7K0SBVt-7xmt-197" target="ctGU4KIR7K0SBVt-7xmt-196">
          <mxGeometry relative="1" as="geometry" />
        </mxCell>
        <mxCell id="ctGU4KIR7K0SBVt-7xmt-197" value="记录匹配？" style="strokeWidth=2;html=1;shape=mxgraph.flowchart.decision;whiteSpace=wrap;" vertex="1" parent="1">
          <mxGeometry x="1070" y="2280" width="100" height="100" as="geometry" />
        </mxCell>
        <mxCell id="ctGU4KIR7K0SBVt-7xmt-199" style="edgeStyle=orthogonalEdgeStyle;rounded=0;orthogonalLoop=1;jettySize=auto;html=1;entryX=0;entryY=0.5;entryDx=0;entryDy=0;entryPerimeter=0;" edge="1" parent="1" source="ctGU4KIR7K0SBVt-7xmt-196" target="ctGU4KIR7K0SBVt-7xmt-194">
          <mxGeometry relative="1" as="geometry">
            <Array as="points">
              <mxPoint x="1300" y="2420" />
              <mxPoint x="1050" y="2420" />
              <mxPoint x="1050" y="2200" />
            </Array>
          </mxGeometry>
        </mxCell>
        <mxCell id="ctGU4KIR7K0SBVt-7xmt-200" style="edgeStyle=orthogonalEdgeStyle;rounded=0;orthogonalLoop=1;jettySize=auto;html=1;entryX=0;entryY=0.5;entryDx=0;entryDy=0;entryPerimeter=0;" edge="1" parent="1" source="ctGU4KIR7K0SBVt-7xmt-197" target="ctGU4KIR7K0SBVt-7xmt-194">
          <mxGeometry relative="1" as="geometry">
            <Array as="points">
              <mxPoint x="980" y="2330" />
              <mxPoint x="980" y="2200" />
            </Array>
          </mxGeometry>
        </mxCell>
        <mxCell id="ctGU4KIR7K0SBVt-7xmt-201" value="Yes" style="text;html=1;align=center;verticalAlign=middle;resizable=0;points=[];autosize=1;strokeColor=none;fillColor=none;" vertex="1" parent="1">
          <mxGeometry x="1160" y="2160" width="40" height="30" as="geometry" />
        </mxCell>
        <mxCell id="ctGU4KIR7K0SBVt-7xmt-203" value="No" style="text;html=1;align=center;verticalAlign=middle;resizable=0;points=[];autosize=1;strokeColor=none;fillColor=none;" vertex="1" parent="1">
          <mxGeometry x="1070" y="2250" width="40" height="30" as="geometry" />
        </mxCell>
        <mxCell id="ctGU4KIR7K0SBVt-7xmt-204" value="Yes" style="text;html=1;align=center;verticalAlign=middle;resizable=0;points=[];autosize=1;strokeColor=none;fillColor=none;" vertex="1" parent="1">
          <mxGeometry x="1190" y="2290" width="40" height="30" as="geometry" />
        </mxCell>
        <mxCell id="ctGU4KIR7K0SBVt-7xmt-205" value="No" style="text;html=1;align=center;verticalAlign=middle;resizable=0;points=[];autosize=1;strokeColor=none;fillColor=none;" vertex="1" parent="1">
          <mxGeometry x="995" y="2350" width="40" height="30" as="geometry" />
        </mxCell>
        <mxCell id="ctGU4KIR7K0SBVt-7xmt-207" style="edgeStyle=orthogonalEdgeStyle;rounded=0;orthogonalLoop=1;jettySize=auto;html=1;entryX=1;entryY=0.5;entryDx=0;entryDy=0;entryPerimeter=0;" edge="1" parent="1" source="ctGU4KIR7K0SBVt-7xmt-194" target="ctGU4KIR7K0SBVt-7xmt-188">
          <mxGeometry relative="1" as="geometry">
            <Array as="points">
              <mxPoint x="1300" y="2200" />
              <mxPoint x="1300" y="1870" />
            </Array>
          </mxGeometry>
        </mxCell>
        <mxCell id="ctGU4KIR7K0SBVt-7xmt-208" value="No" style="text;html=1;align=center;verticalAlign=middle;resizable=0;points=[];autosize=1;strokeColor=none;fillColor=none;" vertex="1" parent="1">
          <mxGeometry x="1070" y="1960" width="40" height="30" as="geometry" />
        </mxCell>
        <mxCell id="ctGU4KIR7K0SBVt-7xmt-211" value="输出" style="rounded=1;whiteSpace=wrap;html=1;absoluteArcSize=1;arcSize=14;strokeWidth=2;" vertex="1" parent="1">
          <mxGeometry x="1070" y="1710" width="100" height="60" as="geometry" />
        </mxCell>
        <mxCell id="ctGU4KIR7K0SBVt-7xmt-214" value="结束" style="strokeWidth=2;html=1;shape=mxgraph.flowchart.terminator;whiteSpace=wrap;" vertex="1" parent="1">
          <mxGeometry x="1070" y="1630" width="100" height="60" as="geometry" />
        </mxCell>
        <mxCell id="ctGU4KIR7K0SBVt-7xmt-216" value="" style="edgeStyle=orthogonalEdgeStyle;rounded=0;orthogonalLoop=1;jettySize=auto;html=1;" edge="1" parent="1" source="ctGU4KIR7K0SBVt-7xmt-215" target="ctGU4KIR7K0SBVt-7xmt-161">
          <mxGeometry relative="1" as="geometry" />
        </mxCell>
        <mxCell id="ctGU4KIR7K0SBVt-7xmt-215" value="开始" style="strokeWidth=2;html=1;shape=mxgraph.flowchart.start_1;whiteSpace=wrap;" vertex="1" parent="1">
          <mxGeometry x="460" y="1700" width="100" height="60" as="geometry" />
        </mxCell>
        <mxCell id="ctGU4KIR7K0SBVt-7xmt-217" style="edgeStyle=orthogonalEdgeStyle;rounded=0;orthogonalLoop=1;jettySize=auto;html=1;exitX=0.5;exitY=0;exitDx=0;exitDy=0;entryX=0.5;entryY=1;entryDx=0;entryDy=0;entryPerimeter=0;" edge="1" parent="1" source="ctGU4KIR7K0SBVt-7xmt-211" target="ctGU4KIR7K0SBVt-7xmt-214">
          <mxGeometry relative="1" as="geometry" />
        </mxCell>
        <mxCell id="ctGU4KIR7K0SBVt-7xmt-219" style="edgeStyle=orthogonalEdgeStyle;rounded=0;orthogonalLoop=1;jettySize=auto;html=1;entryX=0;entryY=0.5;entryDx=0;entryDy=0;entryPerimeter=0;" edge="1" parent="1" source="ctGU4KIR7K0SBVt-7xmt-155" target="ctGU4KIR7K0SBVt-7xmt-188">
          <mxGeometry relative="1" as="geometry">
            <mxPoint x="960" y="1900" as="targetPoint" />
            <Array as="points">
              <mxPoint x="1070" y="2010" />
            </Array>
          </mxGeometry>
        </mxCell>
      </root>
    </mxGraphModel>
  </diagram>
</mxfile>
